# Blender 5.1.1
# www.blender.org
mtllib face.mtl
o Plane
v -0.682114 1.039879 0.756600
v 0.678533 1.039879 0.756600
v -0.682114 1.039879 -0.643400
v 0.678533 1.039879 -0.643400
v -0.682114 1.039879 -0.010666
v -0.682114 1.039879 0.123865
v 0.678533 1.039879 0.123865
v 0.678533 1.039879 -0.010666
v 0.769792 0.883855 0.123865
v 0.769792 0.883855 -0.010666
v 1.005542 0.335869 0.123865
v 1.005542 0.335869 -0.010666
v 1.054974 -0.094148 0.123865
v 1.054974 -0.094148 -0.010666
v 0.925691 -0.467084 0.123865
v 0.925691 -0.467084 -0.010666
v 0.613892 -0.881879 0.123865
v 0.613892 -0.881879 -0.010666
v 0.054935 -0.999848 0.123865
v 0.054935 -0.999848 -0.010666
v -0.492614 -0.900906 0.123865
v -0.492614 -0.900906 -0.010666
v -0.842437 -0.630718 0.123865
v -0.842437 -0.630718 -0.010666
v -1.074385 -0.208312 0.123865
v -1.074385 -0.208312 -0.010666
v -1.017349 0.434811 0.123865
v -1.017349 0.434811 -0.010666
v -0.865252 0.758275 0.123865
v -0.865252 0.758275 -0.010666
v 1.030258 0.120860 -0.010666
v 1.030258 0.120860 0.123865
v -1.043569 0.139162 -0.010666
v -1.045867 0.113249 0.123865
v -1.062424 -0.073444 -0.010666
v -1.060126 -0.047531 0.123865
v 0.991600 -0.094148 -0.313877
v 0.966884 0.120860 -0.313877
v 0.779298 -0.094148 -0.659472
v 0.754582 0.120860 -0.659472
v 0.405393 -0.094149 -0.930080
v 0.380677 0.120860 -0.930080
v -0.012874 -0.094149 -1.014849
v -0.037590 0.120860 -1.014849
v -0.275875 -0.094149 -0.952902
v -0.300591 0.120860 -0.952902
v -0.599081 -0.094148 -0.799667
v -0.623797 0.120860 -0.799667
v -0.868420 -0.094148 -0.476893
v -0.893136 0.120860 -0.476893
v -1.026854 -0.094148 -0.281273
v -1.051570 0.120860 -0.281273
v -0.696994 1.062417 0.130927
v -0.696994 1.062417 0.778886
v 0.696392 1.062417 0.778886
v 0.696392 1.062417 -0.006841
v 0.696392 1.062417 -0.654800
v -0.696994 1.062417 -0.654800
v -0.696994 1.062417 -0.006841
v 0.696392 1.062417 0.130927
v 0.789846 0.902639 0.130927
v 0.789846 0.902639 -0.006841
v 1.031269 0.341467 0.130927
v 1.031269 0.341467 -0.006841
v 1.081890 -0.098897 0.130927
v 1.081890 -0.098897 -0.006841
v 1.056580 0.121285 -0.006841
v 1.056580 0.121285 0.130927
v 0.949497 -0.480805 0.130927
v 0.949497 -0.480805 -0.006841
v 0.630196 -0.905581 0.130927
v 0.630196 -0.905581 -0.006841
v 0.057790 -1.026389 0.130927
v 0.057790 -1.026389 -0.006841
v -0.502935 -0.925066 0.130927
v -0.502935 -0.925066 -0.006841
v -0.861175 -0.648377 0.130927
v -0.861175 -0.648377 -0.006841
v -1.098704 -0.215807 0.130927
v -1.098704 -0.215807 -0.006841
v -1.040295 0.442790 0.130927
v -1.040295 0.442790 -0.006841
v -1.086455 -0.077694 -0.006841
v -1.069500 0.113491 0.130927
v -0.884539 0.774037 0.130927
v -0.884539 0.774037 -0.006841
v -1.067147 0.140027 -0.006841
v -1.084102 -0.051158 0.130927
v 1.016991 -0.098897 -0.317348
v 0.991681 0.121285 -0.317348
v 0.799581 -0.098897 -0.671259
v 0.774271 0.121285 -0.671259
v 0.416679 -0.098897 -0.948378
v 0.391369 0.121285 -0.948378
v -0.011652 -0.098897 -1.035186
v -0.036962 0.121285 -1.035186
v -0.280981 -0.098897 -0.971749
v -0.306291 0.121285 -0.971749
v -0.611964 -0.098897 -0.814826
v -0.637274 0.121285 -0.814826
v -0.887783 -0.098897 -0.484287
v -0.913093 0.121285 -0.484287
v -1.050030 -0.098897 -0.283960
v -1.075340 0.121285 -0.283960
vn -0.0000 -1.0000 -0.0000
vn -0.8632 -0.5049 -0.0000
vn -0.9186 -0.3952 -0.0000
vn -0.9935 -0.1142 -0.0000
vn -0.9448 0.3275 -0.0000
vn -0.7993 0.6009 -0.0000
vn -0.2065 0.9784 -0.0000
vn 0.1778 0.9841 -0.0000
vn 0.6113 0.7914 -0.0000
vn 0.8765 0.4813 -0.0000
vn 0.9961 -0.0883 -0.0000
vn 0.9049 -0.4255 -0.0000
vn 0.8383 -0.5452 -0.0000
vn -0.9727 -0.1118 0.2033
vn -0.8480 -0.0975 0.5209
vn -0.5850 -0.0672 0.8083
vn -0.1986 -0.0228 0.9798
vn 0.2292 0.0263 0.9730
vn 0.4279 0.0492 0.9025
vn 0.7648 0.0879 0.6382
vn 0.7740 0.0890 0.6269
vn 0.9987 0.0137 0.0499
vn -0.0000 1.0000 -0.0000
vn 0.8632 0.5049 -0.0000
vn 0.9186 0.3952 -0.0000
vn 0.9935 0.1142 -0.0000
vn 0.9448 -0.3275 -0.0000
vn 0.7993 -0.6009 -0.0000
vn 0.2065 -0.9784 -0.0000
vn -0.1778 -0.9841 -0.0000
vn -0.6113 -0.7914 -0.0000
vn -0.8765 -0.4813 -0.0000
vn -0.9961 0.0883 -0.0000
vn -0.9049 0.4255 -0.0000
vn -0.8383 0.5452 -0.0000
vn 0.9727 0.1118 -0.2033
vn 0.8480 0.0975 -0.5209
vn 0.5850 0.0672 -0.8083
vn 0.1986 0.0228 -0.9798
vn -0.2292 -0.0263 -0.9730
vn -0.4279 -0.0492 -0.9025
vn -0.7648 -0.0879 -0.6382
vn -0.7740 -0.0890 -0.6269
vn -0.9987 -0.0137 -0.0499
vn -0.0455 -0.9734 0.2245
vn 0.2860 -0.0254 0.9579
vn 0.1345 0.0579 -0.9892
vn 0.0050 0.9998 0.0211
vn -0.1415 0.0665 -0.9877
vn -0.2421 -0.1042 0.9646
vn 0.0542 -0.9717 0.2301
vn 0.2539 -0.1194 0.9598
vn -0.1280 0.0832 -0.9883
vn 0.1435 0.0165 -0.9895
vn 0.0094 0.9998 0.0197
vn 0.2299 -0.1495 0.9617
vn -0.2586 -0.0297 0.9655
vn 0.1028 -0.9708 0.2167
vn 0.1326 -0.0460 -0.9901
vn 0.0163 0.9998 0.0136
vn -0.2392 0.0829 0.9674
vn 0.1807 -0.9719 0.1508
vn -0.1596 0.0142 -0.9871
vn 0.1110 -0.0834 -0.9903
vn 0.0164 0.9998 0.0133
vn -0.2004 0.1506 0.9681
vn 0.1821 -0.9722 0.1475
vn 0.0256 0.9973 -0.0682
vn 0.0294 -0.1395 -0.9898
vn -0.8345 -0.5510 -0.0000
vn 0.1886 -0.9770 0.0995
vn -0.0531 0.2514 0.9664
vn -0.0000 -0.7031 0.7111
vn 0.7838 -0.6210 -0.0000
vn -0.0167 0.9999 0.0035
vn -0.0263 -0.1454 -0.9890
vn -0.0000 -0.4513 -0.8923
vn -0.1787 -0.9832 0.0374
vn 0.0473 0.2616 0.9640
vn -0.0158 0.9998 0.0097
vn -0.0909 -0.1177 -0.9889
vn -0.1691 -0.9801 0.1039
vn 0.1636 0.2118 0.9635
vn -0.0118 0.9998 0.0163
vn -0.1330 -0.0730 -0.9884
vn -0.1268 -0.9763 0.1752
vn 0.2389 0.1312 0.9621
vn 0.1220 0.0713 -0.9900
vn -0.0042 0.9998 0.0208
vn -0.2200 -0.1287 0.9670
vt 0.000000 0.666667
vt 0.000000 1.000000
vt 1.000000 1.000000
vt 1.000000 0.666667
vt 0.000000 0.000000
vt 0.000000 0.333333
vt 1.000000 0.333333
vt 1.000000 0.000000
vt 0.000000 0.548047
vt 1.000000 0.548047
vt 1.000000 0.451953
vt 0.000000 0.451953
s 0
usemtl Material
f 59/9/23 56/10/23 57/3/23 58/2/23
f 54/5/23 55/8/23 60/11/23 53/12/23
f 53/12/23 60/11/23 56/10/23 59/9/23
usemtl Material2
f 5/1/1 3/2/1 4/3/1 8/4/1
f 1/5/1 6/6/1 7/7/1 2/8/1
f 6/6/1 5/1/1 8/4/1 7/7/1
f 8/4/2 10/4/2 9/7/2 7/7/2
f 10/4/3 12/4/3 11/7/3 9/7/3
f 31/4/4 14/4/4 13/7/4 32/7/4
f 14/4/5 16/4/5 15/7/5 13/7/5
f 16/4/6 18/4/6 17/7/6 15/7/6
f 18/4/7 20/4/7 19/7/7 17/7/7
f 20/4/8 22/4/8 21/7/8 19/7/8
f 22/4/9 24/4/9 23/7/9 21/7/9
f 24/4/10 26/4/10 25/7/10 23/7/10
f 33/4/11 28/4/11 27/7/11 34/7/11
f 28/4/12 30/4/12 29/7/12 27/7/12
f 5/1/13 6/6/13 29/7/13 30/4/13
f 12/4/4 31/4/4 32/7/4 11/7/4
f 35/4/11 33/4/11 34/7/11 36/7/11
f 26/4/11 35/4/11 36/7/11 25/7/11
f 31/4/14 38/4/14 37/4/14 14/4/14
f 38/4/15 40/4/15 39/4/15 37/4/15
f 40/4/16 42/4/16 41/4/16 39/4/16
f 42/4/17 44/4/17 43/4/17 41/4/17
f 44/4/18 46/4/18 45/4/18 43/4/18
f 46/4/19 48/4/19 47/4/19 45/4/19
f 48/4/20 50/4/20 49/4/20 47/4/20
f 50/4/21 52/4/21 51/4/21 49/4/21
f 33/4/22 35/4/22 51/4/22 52/4/22
f 56/4/24 60/7/24 61/7/24 62/4/24
f 62/4/25 61/7/25 63/7/25 64/4/25
f 67/4/26 68/7/26 65/7/26 66/4/26
f 66/4/27 65/7/27 69/7/27 70/4/27
f 70/4/28 69/7/28 71/7/28 72/4/28
f 72/4/29 71/7/29 73/7/29 74/4/29
f 74/4/30 73/7/30 75/7/30 76/4/30
f 76/4/31 75/7/31 77/7/31 78/4/31
f 78/4/32 77/7/32 79/7/32 80/4/32
f 87/4/33 84/7/33 81/7/33 82/4/33
f 82/4/34 81/7/34 85/7/34 86/4/34
f 59/1/35 86/4/35 85/7/35 53/6/35
f 64/4/26 63/7/26 68/7/26 67/4/26
f 83/4/33 88/7/33 84/7/33 87/4/33
f 80/4/33 79/7/33 88/7/33 83/4/33
f 67/4/36 66/4/36 89/4/36 90/4/36
f 90/4/37 89/4/37 91/4/37 92/4/37
f 92/4/38 91/4/38 93/4/38 94/4/38
f 94/4/39 93/4/39 95/4/39 96/4/39
f 96/4/40 95/4/40 97/4/40 98/4/40
f 98/4/41 97/4/41 99/4/41 100/4/41
f 100/4/42 99/4/42 101/4/42 102/4/42
f 102/4/43 101/4/43 103/4/43 104/4/43
f 87/4/44 104/4/44 103/4/44 83/4/44
f 41/4/45 43/4/45 95/4/45 93/4/45
f 34/7/46 27/7/46 81/7/46 84/7/46
f 12/4/47 10/4/47 62/4/47 64/4/47
f 46/4/48 44/4/48 96/4/48 98/4/48
f 30/4/49 28/4/49 82/4/49 86/4/49
f 9/7/50 11/7/50 63/7/50 61/7/50
f 43/4/51 45/4/51 97/4/51 95/4/51
f 27/7/52 29/7/52 85/7/52 81/7/52
f 5/1/53 30/4/53 86/4/53 59/1/53
f 31/4/54 12/4/54 64/4/54 67/4/54
f 48/4/55 46/4/55 98/4/55 100/4/55
f 29/7/56 6/6/56 53/6/56 85/7/56
f 32/7/57 13/7/57 65/7/57 68/7/57
f 45/4/58 47/4/58 99/4/58 97/4/58
f 11/7/57 32/7/57 68/7/57 63/7/57
f 16/4/59 14/4/59 66/4/59 70/4/59
f 50/4/60 48/4/60 100/4/60 102/4/60
f 13/7/61 15/7/61 69/7/61 65/7/61
f 47/4/62 49/4/62 101/4/62 99/4/62
f 28/4/63 33/4/63 87/4/63 82/4/63
f 36/7/46 34/7/46 84/7/46 88/7/46
f 18/4/64 16/4/64 70/4/64 72/4/64
f 52/4/65 50/4/65 102/4/65 104/4/65
f 15/7/66 17/7/66 71/7/66 69/7/66
f 49/4/67 51/4/67 103/4/67 101/4/67
f 33/4/68 52/4/68 104/4/68 87/4/68
f 25/7/46 36/7/46 88/7/46 79/7/46
f 20/4/69 18/4/69 72/4/69 74/4/69
f 6/6/70 1/5/70 54/5/70 53/6/70
f 51/4/71 35/4/71 83/4/71 103/4/71
f 17/7/72 19/7/72 73/7/72 71/7/72
f 1/5/73 2/8/73 55/8/73 54/5/73
f 8/4/74 4/3/74 57/3/74 56/4/74
f 38/4/75 31/4/75 67/4/75 90/4/75
f 22/4/76 20/4/76 74/4/76 76/4/76
f 4/3/77 3/2/77 58/2/77 57/3/77
f 14/4/78 37/4/78 89/4/78 66/4/78
f 19/7/79 21/7/79 75/7/79 73/7/79
f 3/2/70 5/1/70 59/1/70 58/2/70
f 40/4/80 38/4/80 90/4/80 92/4/80
f 24/4/81 22/4/81 76/4/81 78/4/81
f 2/8/74 7/7/74 60/7/74 55/8/74
f 37/4/82 39/4/82 91/4/82 89/4/82
f 21/7/83 23/7/83 77/7/83 75/7/83
f 42/4/84 40/4/84 92/4/84 94/4/84
f 26/4/85 24/4/85 78/4/85 80/4/85
f 39/4/86 41/4/86 93/4/86 91/4/86
f 23/7/87 25/7/87 79/7/87 77/7/87
f 10/4/88 8/4/88 56/4/88 62/4/88
f 44/4/89 42/4/89 94/4/89 96/4/89
f 35/4/63 26/4/63 80/4/63 83/4/63
f 7/7/90 9/7/90 61/7/90 60/7/90
